<svg xmlns="http://www.w3.org/2000/svg" viewBox="0 0 32 32"><path fill="#95E1D3" d="M32 17a1.5 1.5 0 0 1-1.5 1.499 1.49 1.49 0 0 1-1.02-.405l-.003.004L16 4.622 2.553 18.068a1.5 1.5 0 1 1-2.092-2.149L14.919 1.46C15.192 1.177 15.575 1 16 1h.001c.026 0 .052 0 .079.002l.012.001.068.005.004.001c.367.04.694.212.933.468l.001-.001L23 7.378V6a1.5 1.5 0 1 1 3 0v4.378l5.598 5.598-.004.004c.25.268.406.625.406 1.02zm-3 2.5V30a1.5 1.5 0 0 1-1.5 1.5h-3v-12h-6v12h-14A1.5 1.5 0 0 1 3 30V19.5l13-13 13 13zm-15.5 0h-6v6h6v-6z"/></svg>